<?xml version="1.0" encoding="utf-8"?>
<!-- Generator: Adobe Illustrator 16.0.0, SVG Export Plug-In . SVG Version: 6.00 Build 0)  -->
<!DOCTYPE svg PUBLIC "-//W3C//DTD SVG 1.1//EN" "http://www.w3.org/Graphics/SVG/1.1/DTD/svg11.dtd">
<svg version="1.1" xmlns="http://www.w3.org/2000/svg" xmlns:xlink="http://www.w3.org/1999/xlink" x="0px" y="0px"
	 width="44.631px" height="44.631px" viewBox="0 0 44.631 44.631" enable-background="new 0 0 44.631 44.631" xml:space="preserve">
<g id="無關背景">
</g>
<g id="排版層">
	<path fill="#F37F8A" d="M22.315,1.055c-11.741,0-21.261,9.52-21.261,21.261c0,11.744,9.52,21.261,21.261,21.261
		s21.261-9.517,21.261-21.261C43.576,10.574,34.057,1.055,22.315,1.055z M30.77,17.981c0.009,0.187,0.013,0.374,0.013,0.563
		c0,5.764-4.388,12.411-12.411,12.411c-2.464,0-4.756-0.721-6.687-1.959c0.343,0.039,0.689,0.06,1.041,0.06
		c2.045,0,3.924-0.696,5.417-1.866c-1.907-0.036-3.519-1.298-4.073-3.029c0.266,0.049,0.539,0.078,0.82,0.078
		c0.398,0,0.784-0.055,1.148-0.153c-1.994-0.402-3.499-2.165-3.499-4.277c0-0.019,0-0.037,0-0.055
		c0.589,0.327,1.261,0.521,1.976,0.545c-1.17-0.781-1.94-2.118-1.94-3.631c0-0.799,0.215-1.549,0.59-2.193
		c2.15,2.639,5.366,4.375,8.99,4.557c-0.074-0.319-0.113-0.651-0.113-0.994c0-2.409,1.953-4.36,4.363-4.36
		c1.253,0,2.388,0.529,3.183,1.375c0.993-0.195,1.927-0.558,2.771-1.059c-0.327,1.02-1.018,1.874-1.918,2.414
		c0.882-0.104,1.723-0.34,2.504-0.686C32.362,16.598,31.622,17.366,30.77,17.981z"/>
</g>
</svg>
