<?xml version="1.0" encoding="utf-8"?>
<!-- Generator: Adobe Illustrator 16.0.0, SVG Export Plug-In . SVG Version: 6.00 Build 0)  -->
<!DOCTYPE svg PUBLIC "-//W3C//DTD SVG 1.1//EN" "http://www.w3.org/Graphics/SVG/1.1/DTD/svg11.dtd">
<svg version="1.1" xmlns="http://www.w3.org/2000/svg" xmlns:xlink="http://www.w3.org/1999/xlink" x="0px" y="0px"
	 width="44.631px" height="44.631px" viewBox="0 0 44.631 44.631" enable-background="new 0 0 44.631 44.631" xml:space="preserve">
<g id="無關背景">
</g>
<g id="排版層">
	<path fill="#F37F8A" d="M22.315,43.515c-11.709,0-21.2-9.492-21.2-21.2s9.491-21.2,21.2-21.2s21.2,9.492,21.2,21.2
		S34.024,43.515,22.315,43.515z M23.899,12.687l7.001,7c0.252,0.252,0.707,0.208,1.016-0.101l0,0
		c0.308-0.309,0.354-0.763,0.101-1.016l-8.976-8.975c-0.125-0.126-0.302-0.306-0.485-0.288c-0.188-0.021-0.367,0.16-0.496,0.288
		l-8.976,8.975c-0.252,0.252-0.207,0.707,0.102,1.016l0,0c0.309,0.309,0.764,0.354,1.015,0.101l7.001-7v20.461
		c0,0.609,0.603,1.104,1.347,1.104l0,0c0.746,0,1.349-0.495,1.349-1.104V12.687z"/>
</g>
</svg>
