<?xml version="1.0" encoding="utf-8"?>
<!-- Generator: Adobe Illustrator 16.0.0, SVG Export Plug-In . SVG Version: 6.00 Build 0)  -->
<!DOCTYPE svg PUBLIC "-//W3C//DTD SVG 1.1//EN" "http://www.w3.org/Graphics/SVG/1.1/DTD/svg11.dtd">
<svg version="1.1" xmlns="http://www.w3.org/2000/svg" xmlns:xlink="http://www.w3.org/1999/xlink" x="0px" y="0px"
	 width="44.631px" height="44.631px" viewBox="0 0 44.631 44.631" enable-background="new 0 0 44.631 44.631" xml:space="preserve">
<g id="無關背景">
</g>
<g id="排版層">
	<g>
		<defs>
			<rect id="SVGID_1_" x="244.983" y="558.913" width="1679.999" height="499.74"/>
		</defs>
		<clipPath id="SVGID_2_">
			<use xlink:href="#SVGID_1_"  overflow="visible"/>
		</clipPath>
		<g clip-path="url(#SVGID_2_)">
			<defs>
				<rect id="SVGID_3_" x="244.983" y="489.133" width="1680" height="881.217"/>
			</defs>
			<clipPath id="SVGID_4_">
				<use xlink:href="#SVGID_3_"  overflow="visible"/>
			</clipPath>
		</g>
	</g>
	<path fill="#F37F8A" d="M43.518,22.315c0,11.709-9.493,21.202-21.202,21.202S1.113,34.024,1.113,22.315S10.606,1.113,22.315,1.113
		S43.518,10.606,43.518,22.315z M23.772,22.315c5.025-5.084,8.694-9.355,8.329-9.72c-0.366-0.367-4.638,3.303-9.72,8.327h-0.001
		c-5.201-5.161-9.617-8.969-9.99-8.596c-0.372,0.37,3.471,4.821,8.594,9.989c-5.161,5.202-8.967,9.618-8.594,9.989
		c0.373,0.373,4.789-3.434,9.99-8.594h0.001c5.083,5.024,9.352,8.692,9.72,8.327c0.365-0.367-3.305-4.638-8.332-9.724"/>
</g>
</svg>
