<?xml version="1.0" encoding="utf-8"?>
<!-- Generator: Adobe Illustrator 16.0.0, SVG Export Plug-In . SVG Version: 6.00 Build 0)  -->
<!DOCTYPE svg PUBLIC "-//W3C//DTD SVG 1.1//EN" "http://www.w3.org/Graphics/SVG/1.1/DTD/svg11.dtd">
<svg version="1.1" xmlns="http://www.w3.org/2000/svg" xmlns:xlink="http://www.w3.org/1999/xlink" x="0px" y="0px"
	 width="44.631px" height="44.631px" viewBox="0 0 44.631 44.631" enable-background="new 0 0 44.631 44.631" xml:space="preserve">
<g id="無關背景">
</g>
<g id="排版層">
	<g>
		<path fill="#F37F8A" d="M22.316,1.116c-11.708,0-21.201,9.493-21.201,21.201s9.493,21.199,21.201,21.199
			s21.199-9.491,21.199-21.199S34.024,1.116,22.316,1.116z M26.857,22.324h-2.971c0,4.745,0,10.591,0,10.591h-4.401
			c0,0,0-5.787,0-10.591h-2.093v-3.742h2.093v-2.423c0-1.733,0.822-4.442,4.442-4.442l3.26,0.013v3.633c0,0-1.981,0-2.366,0
			c-0.386,0-0.935,0.191-0.935,1.019v2.201h3.356L26.857,22.324z"/>
	</g>
</g>
</svg>
