<?xml version="1.0" encoding="utf-8"?>
<!-- Generator: Adobe Illustrator 16.0.0, SVG Export Plug-In . SVG Version: 6.00 Build 0)  -->
<!DOCTYPE svg PUBLIC "-//W3C//DTD SVG 1.1//EN" "http://www.w3.org/Graphics/SVG/1.1/DTD/svg11.dtd">
<svg version="1.1" xmlns="http://www.w3.org/2000/svg" xmlns:xlink="http://www.w3.org/1999/xlink" x="0px" y="0px"
	 width="44.631px" height="44.631px" viewBox="0 0 44.631 44.631" enable-background="new 0 0 44.631 44.631" xml:space="preserve">
<g id="無關背景">
</g>
<g id="排版層">
	<g>
		<path fill="#F37F8A" d="M22.315,1.116c-11.709,0-21.2,9.492-21.2,21.2s9.491,21.198,21.2,21.198
			c11.709,0.001,21.2-9.489,21.2-21.198C43.515,10.608,34.024,1.116,22.315,1.116z M16.418,27.017c-2.597,0-4.703-2.106-4.703-4.7
			c0-2.596,2.106-4.704,4.703-4.704c2.596,0,4.702,2.108,4.702,4.704C21.12,24.91,19.014,27.017,16.418,27.017z M28.213,27.018
			c-2.596,0-4.701-2.106-4.701-4.701c0-2.596,2.105-4.704,4.701-4.704c2.597,0,4.703,2.108,4.703,4.704
			C32.916,24.911,30.81,27.018,28.213,27.018z"/>
	</g>
</g>
</svg>
