<?xml version="1.0" encoding="utf-8"?>
<!-- Generator: Adobe Illustrator 16.0.0, SVG Export Plug-In . SVG Version: 6.00 Build 0)  -->
<!DOCTYPE svg PUBLIC "-//W3C//DTD SVG 1.1//EN" "http://www.w3.org/Graphics/SVG/1.1/DTD/svg11.dtd">
<svg version="1.1" xmlns="http://www.w3.org/2000/svg" xmlns:xlink="http://www.w3.org/1999/xlink" x="0px" y="0px"
	 width="44.631px" height="44.631px" viewBox="0 0 44.631 44.631" enable-background="new 0 0 44.631 44.631" xml:space="preserve">
<g id="無關背景">
</g>
<g id="排版層">
	<g>
		<g>
			<path fill="#F37F8A" d="M18.011,12.733c-1.684-0.05-2.814,1.644-2.521,3.854c0.29,2.212,1.89,3.757,3.575,3.81
				c1.684,0.048,2.651-1.375,2.361-3.587C21.136,14.598,19.694,12.785,18.011,12.733z"/>
			<path fill="#F37F8A" d="M18.719,24.921c-2.51-0.03-4.637,1.583-4.637,3.455c0,1.905,1.813,3.496,4.322,3.496
				c3.528,0,4.757-1.492,4.757-3.401c0-0.23-0.028-0.455-0.08-0.671c-0.277-1.08-1.375-1.672-2.739-2.62
				C19.85,25.02,19.303,24.925,18.719,24.921z"/>
			<path fill="#F37F8A" d="M22.315,1.116c-11.707,0-21.2,9.493-21.2,21.201s9.493,21.199,21.2,21.199
				c11.709,0,21.2-9.491,21.2-21.199S34.024,1.116,22.315,1.116z M23.936,16.715c0,1.382-0.765,2.496-1.845,3.34
				c-1.056,0.824-1.255,1.169-1.255,1.87c0,0.598,1.261,1.488,1.841,1.922c2.017,1.514,2.426,2.466,2.426,4.358
				c0,2.362-2.545,4.709-6.684,4.709c-3.63,0-6.694-1.475-6.694-3.837c0-2.397,2.541-4.896,6.172-4.896
				c0.395,0,0.758-0.011,1.134-0.011c-0.498-0.48-0.898-0.896-0.898-1.627c0-0.434,0.137-0.848,0.331-1.219
				c-0.197,0.013-0.398,0.026-0.605,0.026c-2.983,0-4.719-2.095-4.719-4.722c0-2.572,2.644-4.912,5.814-4.912
				c1.634,0,6.248,0,6.248,0l-1.396,1.468h-1.64C23.321,13.846,23.936,15.21,23.936,16.715z M32.908,16.331h-2.883v2.88h-1.441
				v-2.88h-2.882v-1.442h2.882v-2.883h1.441v2.883h2.883V16.331z"/>
		</g>
	</g>
</g>
</svg>
