<?xml version="1.0" encoding="utf-8"?>
<!-- Generator: Adobe Illustrator 16.0.0, SVG Export Plug-In . SVG Version: 6.00 Build 0)  -->
<!DOCTYPE svg PUBLIC "-//W3C//DTD SVG 1.1//EN" "http://www.w3.org/Graphics/SVG/1.1/DTD/svg11.dtd">
<svg version="1.1" xmlns="http://www.w3.org/2000/svg" xmlns:xlink="http://www.w3.org/1999/xlink" x="0px" y="0px" width="45.63px"
	 height="45.631px" viewBox="0 0 45.63 45.631" enable-background="new 0 0 45.63 45.631" xml:space="preserve">
<g id="無關背景">
</g>
<g id="排版層">
	<g>
		<circle fill="none" stroke="#F37F8A" stroke-miterlimit="10" cx="22.815" cy="22.815" r="21.2"/>
		<path fill="#F37F8A" d="M24.399,13.186l7.001,7c0.252,0.253,0.707,0.208,1.016-0.101l0,0c0.308-0.31,0.354-0.764,0.1-1.017
			l-8.975-8.975c-0.126-0.126-0.303-0.306-0.485-0.287c-0.188-0.021-0.367,0.159-0.497,0.287l-8.975,8.975
			c-0.252,0.253-0.208,0.707,0.102,1.017l0,0c0.308,0.309,0.763,0.354,1.015,0.101l7.002-7.001v20.462
			c0,0.608,0.602,1.103,1.346,1.103l0,0c0.746,0,1.35-0.494,1.35-1.103V13.186z"/>
	</g>
</g>
</svg>
