<svg xmlns="http://www.w3.org/2000/svg" xmlns:xlink="http://www.w3.org/1999/xlink" width="44.631" height="315" viewBox="0 0 44.631 315"><svg width="44.631" height="44.631" viewBox="0 0 44.631 44.631" id="Facebook" y="0"><path fill="#F37F8A" d="M22.316 1.116c-11.708 0-21.2 9.493-21.2 21.2s9.492 21.2 21.2 21.2 21.2-9.49 21.2-21.2-9.492-21.2-21.2-21.2zm4.54 21.208h-2.97v10.59h-4.4v-10.59H17.39v-3.742h2.093V16.16c0-1.734.822-4.443 4.442-4.443l3.26.013v3.633H24.82c-.385 0-.934.19-.934 1.02v2.2h3.356l-.385 3.74z"/></svg>
<svg width="44.631" height="44.631" viewBox="0 0 44.631 44.631" id="GooglePlus" y="45"><g fill="#F37F8A"><path d="M18.01 12.733c-1.683-.05-2.813 1.644-2.52 3.854.29 2.212 1.89 3.757 3.575 3.81 1.684.048 2.65-1.375 2.36-3.587-.29-2.212-1.73-4.025-3.414-4.077zM18.72 24.92c-2.51-.03-4.638 1.584-4.638 3.456 0 1.905 1.813 3.496 4.322 3.496 3.528 0 4.757-1.492 4.757-3.4 0-.23-.027-.456-.08-.672-.276-1.08-1.374-1.672-2.738-2.62-.492-.16-1.04-.255-1.623-.26zM22.315 1.116c-11.707 0-21.2 9.493-21.2 21.2s9.493 21.2 21.2 21.2c11.71 0 21.2-9.49 21.2-21.2s-9.49-21.2-21.2-21.2zm1.62 15.6c0 1.38-.764 2.495-1.844 3.34-1.055.823-1.254 1.168-1.254 1.87 0 .597 1.26 1.487 1.84 1.92 2.018 1.515 2.427 2.467 2.427 4.36 0 2.36-2.545 4.708-6.684 4.708-3.63 0-6.695-1.475-6.695-3.837 0-2.397 2.54-4.896 6.172-4.896.395 0 .758-.01 1.134-.01-.497-.48-.897-.896-.897-1.627 0-.434.137-.848.33-1.22-.196.014-.397.027-.604.027-2.984 0-4.72-2.095-4.72-4.722 0-2.572 2.644-4.912 5.814-4.912h6.248l-1.396 1.468h-1.64c1.155.662 1.77 2.026 1.77 3.53zm8.973-.385h-2.883v2.88h-1.44v-2.88H25.7v-1.44h2.882v-2.884h1.44v2.883h2.884v1.44z"/></g></svg>
<svg width="44.631" height="44.631" viewBox="0 0 44.631 44.631" id="Pinterest" y="90"><path fill="#F37F8A" d="M22.316 1.116c-11.708 0-21.2 9.493-21.2 21.2s9.492 21.2 21.2 21.2c11.706 0 21.2-9.49 21.2-21.2s-9.494-21.2-21.2-21.2zm2.188 25.92c-1.313 0-2.55-.71-2.974-1.517 0 0-.707 2.805-.855 3.344-.53 1.915-2.08 3.83-2.2 3.986-.084.11-.27.074-.29-.07-.034-.244-.43-2.658.037-4.626l1.568-6.635s-.39-.776-.39-1.927c0-1.806 1.046-3.152 2.35-3.152 1.107 0 1.64.832 1.64 1.83 0 1.112-.707 2.778-1.073 4.32-.306 1.292.646 2.345 1.92 2.345 2.307 0 3.86-2.963 3.86-6.476 0-2.67-1.797-4.666-5.066-4.666-3.69 0-5.994 2.755-5.994 5.832 0 1.062.314 1.81.804 2.386.226.267.256.376.174.68-.06.224-.19.765-.247.977-.082.31-.333.418-.61.304-1.702-.692-2.495-2.555-2.495-4.652 0-3.458 2.917-7.605 8.704-7.605 4.648 0 7.71 3.364 7.71 6.977 0 4.773-2.657 8.34-6.572 8.34z"/></svg>
<svg width="44.631" height="44.631" viewBox="0 0 44.631 44.631" id="Twitter" y="135"><path fill="#F37F8A" d="M22.315 1.055c-11.74 0-21.26 9.52-21.26 21.26 0 11.745 9.52 21.262 21.26 21.262s21.26-9.517 21.26-21.26c0-11.743-9.518-21.262-21.26-21.262zM30.77 17.98c.01.188.013.375.013.564 0 5.764-4.388 12.41-12.41 12.41-2.465 0-4.757-.72-6.688-1.958.343.04.69.06 1.04.06 2.046 0 3.925-.696 5.418-1.866-1.907-.036-3.52-1.298-4.073-3.03.266.05.54.08.82.08.398 0 .784-.056 1.148-.154-1.994-.402-3.5-2.165-3.5-4.277v-.056c.59.327 1.262.52 1.977.545-1.17-.782-1.94-2.12-1.94-3.632 0-.8.215-1.55.59-2.193 2.15 2.64 5.366 4.375 8.99 4.557-.074-.32-.113-.65-.113-.994 0-2.41 1.953-4.36 4.363-4.36 1.253 0 2.388.53 3.183 1.375.993-.195 1.927-.558 2.77-1.06-.326 1.02-1.017 1.875-1.917 2.415.883-.104 1.724-.34 2.505-.686-.583.876-1.323 1.644-2.175 2.26z"/></svg>
<svg width="44.63" height="44.631" viewBox="0 0 44.63 44.631" id="clickbutton" y="180"><path fill="#F37F8A" d="M22.315 1.116c11.708 0 21.2 9.492 21.2 21.2 0 11.708-9.492 21.2-21.2 21.2s-21.2-9.492-21.2-21.2c0-11.71 9.492-21.2 21.2-21.2zm-6.255 16.98c0 16.73 12.955 16.582 16.656 16.582-5.626 0-8.365-9.77-8.365-16.582h4.146l-8.29-8.144-8.293 8.144h4.147z"/></svg>
<svg width="44.631" height="44.631" viewBox="0 0 44.631 44.631" id="close" y="225"><g><defs><path id="afa" d="M244.983 558.913h1680v499.74h-1680z"/></defs><clipPath id="afb"><use xlink:href="#afa" overflow="visible"/></clipPath><g clip-path="url(#afb)"><defs><path id="afc" d="M244.983 489.133h1680v881.217h-1680z"/></defs><clipPath><use xlink:href="#afc" overflow="visible"/></clipPath></g><path fill="#F37F8A" d="M43.518 22.315c0 11.71-9.493 21.202-21.202 21.202S1.113 34.024 1.113 22.315 10.606 1.113 22.315 1.113s21.203 9.493 21.203 21.202zm-19.746 0c5.025-5.084 8.694-9.355 8.33-9.72-.367-.367-4.64 3.303-9.72 8.327h-.002c-5.2-5.16-9.617-8.97-9.99-8.596-.372.37 3.47 4.82 8.594 9.99-5.16 5.2-8.967 9.617-8.594 9.988.373.373 4.79-3.434 9.99-8.594 5.084 5.024 9.353 8.692 9.72 8.327.366-.367-3.304-4.638-8.33-9.724"/></g></svg>
<svg width="44.631" height="44.631" viewBox="0 0 44.631 44.631" id="unclickbutton" y="270"><path fill="#F37F8A" d="M43.515 22.315c0 11.708-9.492 21.2-21.2 21.2s-21.2-9.49-21.2-21.2 9.492-21.2 21.2-21.2 21.2 9.492 21.2 21.2zm-16.98-6.255c-16.73 0-16.583 12.955-16.583 16.656 0-5.626 9.772-8.365 16.583-8.365v4.146l8.144-8.29-8.145-8.293v4.147z"/></svg>
</svg>