<?xml version="1.0" encoding="utf-8"?>
<!-- Generator: Adobe Illustrator 16.0.0, SVG Export Plug-In . SVG Version: 6.00 Build 0)  -->
<!DOCTYPE svg PUBLIC "-//W3C//DTD SVG 1.1//EN" "http://www.w3.org/Graphics/SVG/1.1/DTD/svg11.dtd">
<svg version="1.1" xmlns="http://www.w3.org/2000/svg" xmlns:xlink="http://www.w3.org/1999/xlink" x="0px" y="0px"
	 width="44.631px" height="44.631px" viewBox="0 0 44.631 44.631" enable-background="new 0 0 44.631 44.631" xml:space="preserve">
<g id="無關背景">
</g>
<g id="排版層">
	<path fill="#F37F8A" d="M43.515,22.315c0,11.708-9.492,21.2-21.2,21.2s-21.2-9.491-21.2-21.2s9.492-21.2,21.2-21.2
		S43.515,10.607,43.515,22.315z M34.25,16.222c0-0.745-0.495-1.348-1.104-1.348H11.484c-0.608,0-1.103,0.604-1.103,1.348l0,0
		c0,0.745,0.495,1.349,1.103,1.349h21.663C33.755,17.571,34.25,16.967,34.25,16.222L34.25,16.222z M34.25,22.081
		c0-0.745-0.495-1.348-1.104-1.348H11.484c-0.608,0-1.103,0.603-1.103,1.348l0,0c0,0.745,0.495,1.348,1.103,1.348h21.663
		C33.755,23.428,34.25,22.825,34.25,22.081L34.25,22.081z M34.25,27.938c0-0.745-0.495-1.349-1.104-1.349H11.484
		c-0.608,0-1.103,0.604-1.103,1.349l0,0c0,0.745,0.495,1.348,1.103,1.348h21.663C33.755,29.287,34.25,28.683,34.25,27.938
		L34.25,27.938z"/>
</g>
</svg>
