<?xml version="1.0" encoding="utf-8"?>
<!-- Generator: Adobe Illustrator 16.0.0, SVG Export Plug-In . SVG Version: 6.00 Build 0)  -->
<!DOCTYPE svg PUBLIC "-//W3C//DTD SVG 1.1//EN" "http://www.w3.org/Graphics/SVG/1.1/DTD/svg11.dtd">
<svg version="1.1" xmlns="http://www.w3.org/2000/svg" xmlns:xlink="http://www.w3.org/1999/xlink" x="0px" y="0px"
	 width="44.631px" height="44.631px" viewBox="0 0 44.631 44.631" enable-background="new 0 0 44.631 44.631" xml:space="preserve">
<g id="無關背景">
</g>
<g id="排版層">
	<g>
		<g>
			<path fill="#F37F8A" d="M22.128,19.086c0.164,0,0.294-0.044,0.39-0.135c0.096-0.089,0.146-0.217,0.146-0.375v-3.219
				c0-0.13-0.049-0.232-0.147-0.313c-0.099-0.08-0.228-0.119-0.388-0.119c-0.147,0-0.267,0.039-0.36,0.119
				c-0.09,0.082-0.137,0.184-0.137,0.313v3.219c0,0.163,0.044,0.288,0.13,0.375C21.846,19.045,21.969,19.086,22.128,19.086z"/>
			<path fill="#F37F8A" d="M24.793,25.033c-0.167,0-0.331,0.041-0.495,0.126c-0.161,0.085-0.314,0.212-0.459,0.373V23.19h-1.084
				v7.273h1.084v-0.412c0.139,0.167,0.295,0.286,0.459,0.364c0.163,0.08,0.35,0.115,0.56,0.115c0.317,0,0.562-0.098,0.729-0.302
				c0.169-0.204,0.252-0.494,0.252-0.872v-2.978c0-0.44-0.088-0.774-0.269-1.004C25.393,25.146,25.134,25.033,24.793,25.033z
				 M24.734,29.206c0,0.174-0.031,0.295-0.092,0.371c-0.063,0.078-0.158,0.115-0.29,0.115c-0.091,0-0.176-0.021-0.259-0.06
				c-0.083-0.035-0.169-0.102-0.255-0.188v-3.343c0.073-0.076,0.146-0.13,0.221-0.167c0.075-0.034,0.152-0.052,0.229-0.052
				c0.144,0,0.256,0.048,0.334,0.141c0.076,0.093,0.112,0.23,0.112,0.414V29.206z"/>
			<polygon fill="#F37F8A" points="14.705,24.248 15.955,24.248 15.955,30.464 17.163,30.464 17.163,24.248 18.415,24.248 
				18.415,23.19 14.705,23.19 			"/>
			<path fill="#F37F8A" d="M20.876,29.172c-0.102,0.117-0.211,0.211-0.333,0.29c-0.121,0.076-0.222,0.111-0.299,0.111
				c-0.1,0-0.174-0.026-0.22-0.085c-0.042-0.056-0.066-0.146-0.066-0.273v-4.117h-1.072v4.486c0,0.321,0.063,0.557,0.188,0.716
				c0.127,0.164,0.312,0.241,0.561,0.241c0.201,0,0.409-0.054,0.623-0.17c0.215-0.115,0.42-0.28,0.619-0.498v0.59h1.072v-5.366
				h-1.072V29.172z"/>
			<path fill="#F37F8A" d="M22.315,1.116c-11.707,0-21.2,9.493-21.2,21.201s9.493,21.199,21.2,21.199
				c11.709,0,21.2-9.491,21.2-21.199S34.024,1.116,22.315,1.116z M24.873,14.05h1.206v4.531c0,0.139,0.029,0.241,0.078,0.303
				c0.049,0.065,0.133,0.096,0.246,0.096c0.088,0,0.201-0.042,0.337-0.124c0.135-0.085,0.259-0.189,0.371-0.319V14.05h1.209v5.91
				h-1.209v-0.655c-0.221,0.241-0.453,0.429-0.695,0.553c-0.24,0.123-0.473,0.191-0.699,0.191c-0.281,0-0.49-0.091-0.632-0.269
				c-0.141-0.174-0.212-0.438-0.212-0.791V14.05z M20.39,15.401c0-0.458,0.162-0.824,0.486-1.093
				c0.325-0.271,0.763-0.406,1.312-0.406c0.499,0,0.908,0.143,1.229,0.427c0.317,0.286,0.476,0.659,0.476,1.106v3.054
				c0,0.507-0.155,0.9-0.466,1.189c-0.314,0.288-0.745,0.433-1.294,0.433c-0.528,0-0.951-0.15-1.268-0.447
				c-0.315-0.297-0.474-0.696-0.474-1.199V15.401z M17.1,11.948l0.882,3.205h0.085l0.842-3.205h1.382l-1.583,4.689v3.323H17.35
				v-3.175l-1.619-4.837H17.1z M32.916,28.811c0,2.137-1.735,3.874-3.874,3.874H15.588c-2.14,0-3.872-1.737-3.872-3.874v-3.114
				c0-2.137,1.732-3.872,3.872-3.872h13.455c2.139,0,3.874,1.735,3.874,3.872V28.811z"/>
			<path fill="#F37F8A" d="M28.031,24.964c-0.48,0-0.869,0.145-1.173,0.438c-0.304,0.293-0.456,0.675-0.456,1.139v2.409
				c0,0.518,0.139,0.924,0.414,1.217c0.276,0.297,0.655,0.441,1.135,0.441c0.534,0,0.937-0.137,1.203-0.414
				c0.272-0.28,0.406-0.694,0.406-1.245v-0.275h-1.104v0.245c0,0.315-0.037,0.52-0.106,0.612c-0.071,0.093-0.196,0.139-0.374,0.139
				c-0.17,0-0.292-0.054-0.364-0.163c-0.069-0.111-0.104-0.306-0.104-0.588v-1.009h2.052v-1.37c0-0.51-0.132-0.898-0.396-1.17
				C28.901,25.1,28.523,24.964,28.031,24.964z M28.456,27.074h-0.948v-0.54c0-0.226,0.036-0.39,0.111-0.482
				c0.075-0.1,0.197-0.15,0.367-0.15c0.164,0,0.285,0.05,0.357,0.15c0.073,0.093,0.112,0.256,0.112,0.482V27.074z"/>
		</g>
	</g>
</g>
</svg>
