<?xml version="1.0" encoding="utf-8"?>
<!-- Generator: Adobe Illustrator 16.0.0, SVG Export Plug-In . SVG Version: 6.00 Build 0)  -->
<!DOCTYPE svg PUBLIC "-//W3C//DTD SVG 1.1//EN" "http://www.w3.org/Graphics/SVG/1.1/DTD/svg11.dtd">
<svg version="1.1" xmlns="http://www.w3.org/2000/svg" xmlns:xlink="http://www.w3.org/1999/xlink" x="0px" y="0px"
	 width="44.631px" height="44.631px" viewBox="0 0 44.631 44.631" enable-background="new 0 0 44.631 44.631" xml:space="preserve">
<g id="無關背景">
</g>
<g id="排版層">
	<g>
		<path fill="#F37F8A" d="M22.316,1.116c-11.708,0-21.201,9.493-21.201,21.201s9.493,21.199,21.201,21.199
			c11.706,0,21.199-9.491,21.199-21.199S34.022,1.116,22.316,1.116z M24.504,27.035c-1.313,0-2.551-0.709-2.974-1.516
			c0,0-0.707,2.806-0.855,3.345c-0.529,1.915-2.08,3.83-2.199,3.986c-0.085,0.109-0.271,0.074-0.29-0.071
			c-0.035-0.243-0.43-2.657,0.036-4.625c0.233-0.989,1.568-6.635,1.568-6.635s-0.39-0.775-0.39-1.926
			c0-1.806,1.046-3.152,2.349-3.152c1.108,0,1.641,0.831,1.641,1.828c0,1.113-0.707,2.779-1.073,4.321
			c-0.306,1.292,0.646,2.345,1.92,2.345c2.307,0,3.861-2.963,3.861-6.476c0-2.668-1.798-4.665-5.067-4.665
			c-3.692,0-5.995,2.755-5.995,5.832c0,1.062,0.314,1.809,0.804,2.386c0.226,0.267,0.256,0.376,0.174,0.681
			c-0.06,0.223-0.191,0.764-0.247,0.976c-0.082,0.31-0.333,0.419-0.611,0.305c-1.701-0.692-2.494-2.555-2.494-4.652
			c0-3.458,2.917-7.605,8.704-7.605c4.648,0,7.709,3.364,7.709,6.977C31.076,23.467,28.419,27.035,24.504,27.035z"/>
	</g>
</g>
</svg>
